<?xml version="1.0" encoding="UTF-8"?>
<svg width="218px" height="290px" viewBox="0 0 218 290" version="1.1" xmlns="http://www.w3.org/2000/svg" xmlns:xlink="http://www.w3.org/1999/xlink" xmlns:sketch="http://www.bohemiancoding.com/sketch/ns">
    <!-- Generator: Sketch 3.4.2 (15855) - http://www.bohemiancoding.com/sketch -->
    <title>Untitled</title>
    <desc>Created with Sketch.</desc>
    <defs></defs>
    <g id="Page-1" stroke="none" stroke-width="1" fill="none" fill-rule="evenodd" sketch:type="MSPage">
        <g id="geoffrey_1" sketch:type="MSLayerGroup">
            <path d="M0.06,0 L218,0 L218,290 L0.06,290 L0.06,0 Z" id="Fill-1" fill="#FFFFFF" sketch:type="MSShapeGroup"></path>
            <path d="M92.8,6.6 C116.5,3.2 141.4,8.5 161.6,21.5 C174,30.3 185,41.4 192.1,55 C200.1,68.5 203.8,84.1 204.1,99.7 C196.5,97.4 188.9,95.2 181.3,92.9 C180.9,87.7 181.2,82.5 180.4,77.4 C179.3,75.5 176.8,76.1 175,76 C157.8,77.6 140.7,79.2 123.6,80.8 C119.6,81.2 115.2,80.9 112.1,83.9 C112.4,89.2 112.5,94.5 112.9,99.7 C112.2,99.8 110.8,99.9 110,99.9 C109.7,94.7 109.9,89.6 109.3,84.4 C109,81.9 106,82 104.1,82 C84.4,82.1 64.7,82.7 45.1,82.8 C43.4,83.1 40.4,82.8 40.2,85.1 C40.1,90.7 40.9,96.3 41,101.9 C31.6,105 22.2,108.2 12.9,111.4 C10.9,89 17.4,66.4 29.6,47.6 C35.2,37.9 43.7,30.2 52.6,23.7 C64.7,15.5 78.6,9.9 92.8,6.6" id="Fill-2" fill="#FFE1C4" sketch:type="MSShapeGroup"></path>
            <path d="M123.6,80.8 C140.7,79.2 157.8,77.6 175,76 C176.8,76.1 179.3,75.5 180.4,77.4 C181.2,82.5 180.9,87.7 181.3,92.9 C188.9,95.2 196.5,97.4 204.1,99.7 C204.5,99.8 205.2,100 205.6,100.2 C205.4,102.3 205.3,104.4 205.2,106.5 L204,106.5 C196.5,106.6 189.1,107.2 181.7,107.3 C182.1,116.2 182.3,125.1 182.7,134 C182.7,135.9 183.1,138.1 181.8,139.7 C180.2,140.9 178,140.8 176,141 C157.3,141.2 138.6,141.9 119.9,142 C117.7,142.4 115.9,140.9 115.5,138.8 C114.8,134.8 115,130.8 114.7,126.8 C114.5,121.4 114.3,116.1 114,110.7 C113,110.7 111.1,110.8 110.2,110.8 C110.4,114.7 110.6,118.7 110.8,122.6 C110.9,128.1 111.4,133.6 111.4,139 C111.7,141.4 109.1,142.7 107.1,142.7 C89.1,144.1 71.1,145.5 53.1,147 C50.4,147.2 47.8,147.6 45.1,147.4 C43.1,147 42.9,144.7 42.8,143 C42.2,134.3 42,125.5 41.5,116.7 C31.1,116.7 20.8,117.4 10.5,117.2 C10.6,115.5 10.7,113.8 10.8,112.1 C11.3,111.9 12.3,111.6 12.9,111.4 C22.2,108.2 31.6,105 41,101.9 C40.9,96.3 40.1,90.7 40.2,85.1 C40.4,82.8 43.4,83.1 45.1,82.8 C64.7,82.7 84.4,82.1 104.1,82 C106,82 109,81.9 109.3,84.4 C109.9,89.6 109.7,94.7 110,99.9 C110.8,99.9 112.2,99.8 112.9,99.7 C112.5,94.5 112.4,89.2 112.1,83.9 C115.2,80.9 119.6,81.2 123.6,80.8" id="Fill-3" fill="#000000" sketch:type="MSShapeGroup"></path>
            <path d="M118.8,87.5 C135.2,86.2 151.6,84.6 168,83.2 C170.2,82.8 173.1,83.8 173.2,86.5 C173.9,101 174.3,115.5 175,130 C175.2,131.8 174.7,133.5 174.2,135.2 C156.8,135.9 139.4,135.3 121.9,135.5 C119.7,135.9 117.1,134.6 117.1,132.1 C116,119 115.4,106 114.3,93 C114.2,91.4 113.5,89.3 115.1,88.2 C116.3,87.7 117.6,87.6 118.8,87.5" id="Fill-4" fill="#FFFFFF" sketch:type="MSShapeGroup"></path>
            <path d="M82.3,88.4 C89.8,88.3 97.3,87.7 104.9,88.1 C106.4,89.2 107.1,91.1 107,92.9 C107.6,105.9 108.1,119 108.7,132 C108.7,133.5 108.8,135.4 107.6,136.4 C106.2,137.1 104.5,137 103,137.1 C87.7,138.3 72.4,139.5 57.1,140.7 C55.1,140.6 52.8,141.3 51.1,139.9 C50.8,138.7 50.7,137.4 50.6,136.2 C49.8,121.4 49.1,106.7 48.2,92 C47.7,89.8 50.2,89 51.9,89.1 C62,88.9 72.1,88.6 82.3,88.4" id="Fill-5" fill="#FFFFFF" sketch:type="MSShapeGroup"></path>
            <path d="M118.1,91.6 C134.7,90.5 151.2,89 167.8,87.9 C168.4,102 169.3,116.1 170,130.2 C155.5,131.2 140.9,131.6 126.3,132.3 C126.1,132.1 125.6,131.5 125.4,131.3 C140,131 154.5,130 169,129.7 C168.3,116.1 167.6,102.5 167,88.9 C150.5,90 133.9,91.6 117.3,92.5 C117.5,92.3 117.9,91.8 118.1,91.6" id="Fill-6" fill="#000000" sketch:type="MSShapeGroup"></path>
            <path d="M53.5,94 C70.8,93.8 88.1,92.2 105.3,92.5 C104.3,92.9 103.2,93.3 102,93.2 C86.1,93.8 70.3,94.6 54.5,95 C55.3,108.6 55.7,122.2 56.6,135.8 C71.2,135.2 85.8,133.5 100.5,133.4 C98.1,134.5 95.5,134.3 93,134.5 C80.5,135.2 68.1,136.3 55.6,136.8 C54.8,122.6 54.1,108.3 53.5,94" id="Fill-7" fill="#000000" sketch:type="MSShapeGroup"></path>
            <path d="M134.5,101.6 C138.3,100.7 143.1,100.8 145.7,104.2 C149.7,108.7 149,116.7 143.7,119.8 C138.9,122.9 131.5,121.3 129.1,116 C126.3,110.8 128.7,103.4 134.5,101.6" id="Fill-8" fill="#000000" sketch:type="MSShapeGroup"></path>
            <path d="M84.4,105.6 C88.5,104.2 93.9,104.7 96.5,108.6 C100.2,112.8 99.3,120.3 94.5,123.3 C89.5,127 81.3,124.9 79.2,118.9 C77.1,113.9 79.5,107.8 84.4,105.6" id="Fill-9" fill="#000000" sketch:type="MSShapeGroup"></path>
            <path d="M181.7,107.3 C189.1,107.2 196.5,106.6 204,106.5 C201.6,132.7 189.5,158.6 168.3,174.7 C167.9,175 167,175.5 166.5,175.8 C162,178.4 157.7,181.4 153.2,184 C148.4,186.6 143.4,189 138.2,190.9 C136,191.6 133.9,192.3 131.7,192.8 L130.4,192.8 L131.4,193.8 C129.4,193.8 127.5,193.9 125.6,193.9 C126.5,191.2 127.2,188.6 128,185.9 C124.6,187.6 120.9,189.3 117,189.1 C113.7,189.6 112,185.8 108.8,186 C108.2,187 107.6,188.1 107,189.1 C101.8,189.1 96.2,188.6 92,185 C92.4,188.5 92.5,192.1 94.1,195.3 C90.2,194.9 86.4,194.1 82.8,192.9 C82.4,192.8 81.8,192.6 81.5,192.5 C78.2,191.4 74.9,190.3 71.7,188.9 C67.1,186.9 62.6,184.6 58.2,182.2 C55.2,180.3 52.2,178.3 49.2,176.5 C48.4,175.8 47.5,175.2 46.6,174.6 C41.9,171.3 38,167 34.4,162.5 C23.6,149.8 15.9,134.2 13.2,117.7 C12.5,117.6 11,117.4 10.3,117.3 C10.5,115.6 10.6,113.8 10.8,112.1 C10.7,113.8 10.6,115.5 10.5,117.2 C20.8,117.4 31.1,116.7 41.5,116.7 C42,125.5 42.2,134.3 42.8,143 C42.9,144.7 43.1,147 45.1,147.4 C47.8,147.6 50.4,147.2 53.1,147 C71.1,145.5 89.1,144.1 107.1,142.7 C109.1,142.7 111.7,141.4 111.4,139 C111.4,133.6 110.9,128.1 110.8,122.6 C112.1,124 113.4,125.4 114.7,126.8 C115,130.8 114.8,134.8 115.5,138.8 C115.9,140.9 117.7,142.4 119.9,142 C138.6,141.9 157.3,141.2 176,141 C178,140.8 180.2,140.9 181.8,139.7 C183.1,138.1 182.7,135.9 182.7,134 C182.3,125.1 182.1,116.2 181.7,107.3" id="Fill-10" fill="#FFE1C4" sketch:type="MSShapeGroup"></path>
            <path d="M110.2,110.8 C111.1,110.8 113,110.7 114,110.7 C114.3,116.1 114.5,121.4 114.7,126.8 C113.4,125.4 112.1,124 110.8,122.6 C110.6,118.7 110.4,114.7 110.2,110.8" id="Fill-11" fill="#FFFFFF" sketch:type="MSShapeGroup"></path>
            <path d="M113.1,153.1 C120,153 125.6,157.5 130.1,162.2 C124.3,162.4 118.5,161.9 112.7,162 C112.9,159 113,156 113.1,153.1" id="Fill-12" fill="#FF9900" sketch:type="MSShapeGroup"></path>
            <path d="M91.4,155.5 C94.7,154.1 98.4,153.9 101.9,153.6 C102.1,156.5 102.2,159.4 102.3,162.2 C96,162.2 89.6,162.3 83.3,162.2 C85.8,159.8 88.1,156.8 91.4,155.5" id="Fill-13" fill="#FF9900" sketch:type="MSShapeGroup"></path>
            <path d="M93.6,175.2 C102.9,173.2 112.1,170.1 121.6,169.4 C120.9,172 117.9,171.7 115.9,172.5 C108.6,173.9 101.6,176.7 94.1,176.9 C94,176.5 93.7,175.6 93.6,175.2" id="Fill-14" fill="#000000" sketch:type="MSShapeGroup"></path>
            <path d="M46.6,174.6 C47.5,175.2 48.4,175.8 49.2,176.5 C54.7,185.3 60.9,193.7 66.8,202.4 C71.7,199.1 76.6,195.8 81.5,192.5 C81.8,192.6 82.4,192.8 82.8,192.9 C82.5,196.6 82.3,200.3 82.4,204 C82.4,203.6 82.3,203 82.3,202.6 C82,202.6 81.3,202.4 80.9,202.4 C81.3,200.9 82.7,198.7 80.6,198 C82.4,197 82,194.8 82.5,193.1 C77.3,196.8 71.9,200.2 66.6,203.8 C59.9,194.2 53.3,184.7 46.8,174.9 L46.6,174.6" id="Fill-15" fill="#000000" sketch:type="MSShapeGroup"></path>
            <path d="M166.5,175.8 C167,175.5 167.9,175 168.3,174.7 L167.7,175.6 C159.8,185.9 151.4,195.9 142.9,205.8 C138.8,202.1 135.1,197.9 131.4,193.8 L130.4,192.8 L131.7,192.8 C135.4,196.7 139,200.7 142.7,204.6 C150.7,195.1 158.6,185.5 166.5,175.8" id="Fill-16" fill="#000000" sketch:type="MSShapeGroup"></path>
            <path d="M46.8,174.9 C53.3,184.7 59.9,194.2 66.6,203.8 C71.9,200.2 77.3,196.8 82.5,193.1 C82,194.8 82.4,197 80.6,198 C82.7,198.7 81.3,200.9 80.9,202.4 C81.3,202.4 82,202.6 82.3,202.6 C82.3,203 82.4,203.6 82.4,204 C82.6,224 82.5,244.1 82.5,264.1 C81,264 79.5,263.8 78,263.6 C77.7,261 77.4,258.4 77,255.7 C74.9,257.7 72.9,259.6 71,261.7 C70.1,259.1 69.8,256.2 68.1,254 C66.7,253 64.8,253 63.2,252.4 C62.9,253.8 62.7,255.1 62.5,256.5 C59.8,257.4 57.3,258.6 55.1,260.4 C51.2,259.7 47.3,258.8 43.5,257.9 C42.8,257.7 41.3,257.3 40.6,257.1 C43.5,255.8 46.2,253.8 47.9,251 C49.4,248.5 50.1,245.3 53,244 C53.3,244.7 54,246 54.3,246.7 C56.6,244.7 58.5,242.4 60.1,239.8 C62,239.9 64,240.1 65.9,239.9 C68,239.3 69.5,237.5 71.1,236.1 C69.6,235.6 68.1,235 66.5,234.5 C67.6,231.6 69.6,228.3 67.6,225.4 C65.8,225.7 64,226.3 62.3,226.8 C61.5,223.8 60.1,220.8 57.1,219.5 C56.5,222.4 56,225.2 55.5,228.1 C53.7,229.3 51.8,230.5 50,231.7 C49.1,231.5 48.1,231.4 47.2,231.2 C49.7,225 50.7,218.4 52.1,211.9 C51.5,211.6 50.3,211.2 49.7,211 C50.6,208.8 51.5,206.7 52.4,204.5 C55.6,205 59,204.9 61.9,203.3 C60.4,200.5 58.3,198 55.7,196.1 C55.5,193.6 55.3,191 55.1,188.5 C52.7,189.8 50.4,191.3 48.1,192.8 C45.9,190.6 43,189.3 40,188.8 C40.2,192 40.6,195.1 41.6,198 C38.5,199.9 36,202.6 34.1,205.7 C33.3,205.4 31.8,204.9 31.1,204.6 C34.9,194 40.4,184.2 46.8,174.9" id="Fill-17" fill="#66CC00" sketch:type="MSShapeGroup"></path>
            <path d="M153.2,184 C157.7,181.4 162,178.4 166.5,175.8 C158.6,185.5 150.7,195.1 142.7,204.6 C139,200.7 135.4,196.7 131.7,192.8 C133.9,192.3 136,191.6 138.2,190.9 C139.1,191.7 140.1,192.6 141,193.5 C142,192.8 143.1,192.1 144.1,191.5 C145.2,192.4 146.3,193.3 147.5,194.2 C147.6,192.4 147.7,190.7 147.8,188.9 C149.6,188.6 151.4,188.3 153.2,188 L153.2,184" id="Fill-18" fill="#66CC00" sketch:type="MSShapeGroup"></path>
            <path d="M142.9,205.8 C151.4,195.9 159.8,185.9 167.7,175.6 C172.3,181.6 175.6,188.5 179.4,195.1 C177.4,194.7 175.3,194.4 173.3,194.1 C173.1,191.3 173,188.4 172.8,185.6 C168.9,186 167.2,189.5 165.8,192.7 C163.2,193.4 158.2,192.1 158.2,196.1 C158.2,200 162.7,200.8 165.7,201.5 C166,203.9 166.2,206.4 166.5,208.8 C165,209.6 163.6,210.3 162.1,211.1 C161.8,214 161.5,217 161.1,219.9 C162.9,223 164.8,226 166.6,229.1 C166.9,229.7 167.2,230.4 167.5,231 C165.4,232.2 162.7,233.1 161.7,235.5 C161.1,237.6 161.3,239.9 161.2,242.1 C160.8,242.2 159.8,242.5 159.3,242.6 C158.4,240.6 157.6,238.6 156.7,236.6 C155.3,238.6 153.9,240.6 152.6,242.8 C149.8,243.3 147,243.9 144.3,244.8 C144.9,248.1 147.7,250 150.5,251.5 C150.4,253.9 149,259.3 152.9,259 C154.2,257.5 155.2,255.7 156.2,254.1 C158.3,254.9 160.7,257.8 162.8,255.9 C164.5,253.5 163.2,250.5 162.9,248 C163.1,247.2 163.7,245.6 163.9,244.9 L164.9,246 C166.9,250.4 169.7,254.7 174.2,256.9 C173.5,257.1 172.3,257.4 171.6,257.6 C158.8,261 145.6,262.7 132.5,263.9 C133,263.7 134,263.3 134.6,263.1 C134.6,260.8 134.8,258.5 134.5,256.2 C133.8,255 132.6,254.2 131.5,253.2 C131.4,233.4 131.7,213.6 131.4,193.8 C135.1,197.9 138.8,202.1 142.9,205.8" id="Fill-19" fill="#66CC00" sketch:type="MSShapeGroup"></path>
            <path d="M49.2,176.5 C52.2,178.3 55.2,180.3 58.2,182.2 C60.1,186.1 63.5,189.2 64.3,193.7 C65.2,192.3 66.2,190.8 67,189.4 C68,190.1 69,190.7 70,191.4 C70.4,190.8 71.2,189.6 71.7,188.9 C74.9,190.3 78.2,191.4 81.5,192.5 C76.6,195.8 71.7,199.1 66.8,202.4 C60.9,193.7 54.7,185.3 49.2,176.5" id="Fill-20" fill="#66CC00" sketch:type="MSShapeGroup"></path>
            <path d="M64.3,193.7 C63.5,189.2 60.1,186.1 58.2,182.2 C62.6,184.6 67.1,186.9 71.7,188.9 C71.2,189.6 70.4,190.8 70,191.4 C69,190.7 68,190.1 67,189.4 C66.2,190.8 65.2,192.3 64.3,193.7" id="Fill-21" fill="#339900" sketch:type="MSShapeGroup"></path>
            <path d="M138.2,190.9 C143.4,189 148.4,186.6 153.2,184 L153.2,188 C151.4,188.3 149.6,188.6 147.8,188.9 C147.7,190.7 147.6,192.4 147.5,194.2 C146.3,193.3 145.2,192.4 144.1,191.5 C143.1,192.1 142,192.8 141,193.5 C140.1,192.6 139.1,191.7 138.2,190.9" id="Fill-22" fill="#339900" sketch:type="MSShapeGroup"></path>
            <path d="M92,185 C96.2,188.6 101.8,189.1 107,189.1 C107.6,188.1 108.2,187 108.8,186 C112,185.8 113.7,189.6 117,189.1 C120.9,189.3 124.6,187.6 128,185.9 C127.2,188.6 126.5,191.2 125.6,193.9 C125,195.6 124.4,197.4 123.7,199.1 C123.2,198.2 122.6,197.3 122,196.4 C121.4,199.9 120.9,203.3 120.3,206.8 C119.6,206.6 118.3,206.1 117.6,205.9 C115.2,213.2 113.4,220.7 111.2,228.1 C108.1,220.1 105.7,211.7 103.9,203.2 C103,205.9 102.4,208.5 102,211.3 C99.8,205.8 98.9,199.3 94.1,195.3 C92.5,192.1 92.4,188.5 92,185" id="Fill-23" fill="#FF9900" sketch:type="MSShapeGroup"></path>
            <path d="M165.8,192.7 C167.2,189.5 168.9,186 172.8,185.6 C173,188.4 173.1,191.3 173.3,194.1 C175.3,194.4 177.4,194.7 179.4,195.1 L179.1,195.7 C178.5,197.1 178.1,198.5 177.5,199.9 C179.2,201.2 180.9,202.6 182.5,204 C183,204.6 183.3,205.3 183.7,206 C176.8,207 170,209.2 163.7,212.1 C164.1,214.7 164.6,217.3 165.1,219.9 C172,217.8 178.8,215.1 185.9,213.5 C186.1,213.8 186.6,214.3 186.8,214.6 C179.7,216.9 172.5,219.1 165.3,221.4 C165.7,223.9 166.1,226.5 166.6,229.1 C164.8,226 162.9,223 161.1,219.9 C161.5,217 161.8,214 162.1,211.1 C163.6,210.3 165,209.6 166.5,208.8 C166.2,206.4 166,203.9 165.7,201.5 C162.7,200.8 158.2,200 158.2,196.1 C158.2,192.1 163.2,193.4 165.8,192.7" id="Fill-24" fill="#339900" sketch:type="MSShapeGroup"></path>
            <path d="M40,188.8 C43,189.3 45.9,190.6 48.1,192.8 C50.4,191.3 52.7,189.8 55.1,188.5 C55.3,191 55.5,193.6 55.7,196.1 C58.3,198 60.4,200.5 61.9,203.3 C59,204.9 55.6,205 52.4,204.5 C51.5,206.7 50.6,208.8 49.7,211 C48.7,210.7 47.8,210.3 46.9,210 C46.5,208 46.2,206 45.8,204 C43,205 40.2,205.9 37.3,206.8 C36.3,206.5 35.2,206.1 34.1,205.7 C36,202.6 38.5,199.9 41.6,198 C40.6,195.1 40.2,192 40,188.8" id="Fill-25" fill="#339900" sketch:type="MSShapeGroup"></path>
            <path d="M168.3,195.6 C168.7,193.2 169.1,190.7 170.7,188.8 C170.5,191.2 170,193.5 169.5,195.9 C169.2,195.8 168.6,195.7 168.3,195.6" id="Fill-26" fill="#66CC00" sketch:type="MSShapeGroup"></path>
            <path d="M42,190.8 C44.9,192.4 45.9,195.6 46.3,198.7 C43.2,197.2 42.5,193.8 42,190.8" id="Fill-27" fill="#66CC00" sketch:type="MSShapeGroup"></path>
            <path d="M48.4,198.8 C48.5,196.2 49.8,193.9 52.1,192.7 C51.6,195.1 50.6,197.4 48.4,198.8" id="Fill-28" fill="#66CC00" sketch:type="MSShapeGroup"></path>
            <path d="M82.8,192.9 C86.4,194.1 90.2,194.9 94.1,195.3 C98.9,199.3 99.8,205.8 102,211.3 C102.4,208.5 103,205.9 103.9,203.2 C105.7,211.7 108.1,220.1 111.2,228.1 C113.4,220.7 115.2,213.2 117.6,205.9 C118.3,206.1 119.6,206.6 120.3,206.8 C120.9,203.3 121.4,199.9 122,196.4 C122.6,197.3 123.2,198.2 123.7,199.1 C124.4,197.4 125,195.6 125.6,193.9 C127.5,193.9 129.4,193.8 131.4,193.8 C131.7,213.6 131.4,233.4 131.5,253.2 L131.5,264.1 C115.2,265.6 98.8,265.1 82.5,264.1 C82.5,244.1 82.6,224 82.4,204 C82.3,200.3 82.5,196.6 82.8,192.9" id="Fill-29" fill="#FFFFFF" sketch:type="MSShapeGroup"></path>
            <path d="M172.3,196.1 C173.1,195.3 175.5,196 174.4,197.4 C173.4,199.4 169.7,197.6 172.3,196.1" id="Fill-30" fill="#66CC00" sketch:type="MSShapeGroup"></path>
            <path d="M179.1,195.7 C180.7,198.2 181.9,201 182.5,204 C180.9,202.6 179.2,201.2 177.5,199.9 C178.1,198.5 178.5,197.1 179.1,195.7" id="Fill-31" fill="#66CC00" sketch:type="MSShapeGroup"></path>
            <path d="M162.3,197.4 C163.4,196.6 165.5,196.9 165.9,198.3 C165.6,200.3 161.2,199.4 162.3,197.4" id="Fill-32" fill="#66CC00" sketch:type="MSShapeGroup"></path>
            <path d="M172.4,200.4 C173.8,199.9 176.1,201.3 175.6,202.8 C174.3,203.5 172,201.9 172.4,200.4" id="Fill-33" fill="#66CC00" sketch:type="MSShapeGroup"></path>
            <path d="M52.6,201.2 C53.2,200.2 55.7,200.2 55.5,201.6 C54.9,202.6 52.4,202.6 52.6,201.2" id="Fill-34" fill="#66CC00" sketch:type="MSShapeGroup"></path>
            <path d="M167.9,206.5 C168,204.4 168.6,202.4 169.8,200.6 C170.2,202.8 170.5,205.6 167.9,206.5" id="Fill-35" fill="#66CC00" sketch:type="MSShapeGroup"></path>
            <path d="M40.4,202.1 C43.2,201.7 40.8,205.1 39.1,204.2 C37.6,203.7 39.5,202.1 40.4,202.1" id="Fill-36" fill="#66CC00" sketch:type="MSShapeGroup"></path>
            <path d="M48.4,202.5 C49.9,202.6 49.7,206.3 48.3,206.5 C47.5,205.4 47.5,203.6 48.4,202.5" id="Fill-37" fill="#66CC00" sketch:type="MSShapeGroup"></path>
            <path d="M37.3,206.8 C40.2,205.9 43,205 45.8,204 C46.2,206 46.5,208 46.9,210 C43.7,208.9 40.5,207.9 37.3,206.8" id="Fill-38" fill="#66CC00" sketch:type="MSShapeGroup"></path>
            <path d="M30.4,206.8 C30.6,206.2 30.9,205.2 31.1,204.6 C31.8,204.9 33.3,205.4 34.1,205.7 C35.2,206.1 36.3,206.5 37.3,206.8 C40.5,207.9 43.7,208.9 46.9,210 C47.8,210.3 48.7,210.7 49.7,211 C50.3,211.2 51.5,211.6 52.1,211.9 C50.7,218.4 49.7,225 47.2,231.2 C47.7,228.5 48.2,225.7 48.8,222.9 C41.8,220.8 34.9,218.7 28,216.6 L27.4,216.4 C27.5,215.9 27.7,214.8 27.8,214.2 L27.7,214.8 L27.6,215.3 C34.7,217.7 41.9,219.7 49,221.9 C49.6,218.7 50.2,215.5 50.7,212.3 C44,210.3 37.6,207.7 30.9,205.7 C30.8,206 30.5,206.5 30.4,206.8" id="Fill-39" fill="#000000" sketch:type="MSShapeGroup"></path>
            <path d="M172.1,204.8 C173.5,205 174.9,205.2 176.2,205.4 C174.6,206 172.9,206.6 171.2,207.2 C171.4,206.6 171.9,205.4 172.1,204.8" id="Fill-40" fill="#66CC00" sketch:type="MSShapeGroup"></path>
            <path d="M30.9,205.7 C37.6,207.7 44,210.3 50.7,212.3 C50.2,215.5 49.6,218.7 49,221.9 C41.9,219.7 34.7,217.7 27.6,215.3 L27.7,214.8 C28.4,212 29.2,209.3 30.4,206.8 C30.5,206.5 30.8,206 30.9,205.7" id="Fill-41" fill="#66CC00" sketch:type="MSShapeGroup"></path>
            <path d="M163.7,212.1 C170,209.2 176.8,207 183.7,206 C184.4,208.5 185.2,211 185.9,213.5 C178.8,215.1 172,217.8 165.1,219.9 C164.6,217.3 164.1,214.7 163.7,212.1" id="Fill-42" fill="#66CC00" sketch:type="MSShapeGroup"></path>
            <path d="M137.8,207.6 C141,207.4 143.2,209.7 145.1,212 C146.2,210.6 147.3,209.3 148.4,207.9 C152,210.3 149.2,214.5 149.3,217.9 C151.3,220.2 153.7,222.2 154.5,225.2 C152.1,225.4 149.7,225.5 147.3,225.5 C146,226.9 144.9,228.9 142.9,229.5 C141.5,227.9 141,225.8 140.2,223.9 C137.9,223.6 134.8,224.9 133.2,222.8 C132.8,219.4 136.2,217.5 138.1,215.3 C138,212.7 137.8,210.1 137.8,207.6" id="Fill-43" fill="#339900" sketch:type="MSShapeGroup"></path>
            <path d="M75.1,208.9 C76.4,209.2 78.2,208.8 78.8,210.4 C78.5,212.2 76.7,212.7 75.1,212.1 L75.1,208.9" id="Fill-44" fill="#000000" sketch:type="MSShapeGroup"></path>
            <path d="M147.3,213.3 C148.9,213.7 147.8,217.2 146.3,216.7 C145.7,215.6 146.2,213.9 147.3,213.3" id="Fill-45" fill="#66CC00" sketch:type="MSShapeGroup"></path>
            <path d="M165.3,221.4 C172.5,219.1 179.7,216.9 186.8,214.6 C187.7,219 189,223.4 189.8,227.9 C190.3,233 195.2,236.6 195,241.9 C195.7,249.1 190.4,255.8 183.6,257.5 C180.5,258 177.2,257.8 174.2,256.9 C169.7,254.7 166.9,250.4 164.9,246 L163.9,244.9 C163.1,243.9 162.1,243 161.2,242.1 C161.3,239.9 161.1,237.6 161.7,235.5 C162.7,233.1 165.4,232.2 167.5,231 C167.2,230.4 166.9,229.7 166.6,229.1 C166.1,226.5 165.7,223.9 165.3,221.4" id="Fill-46" fill="#FFE1C4" sketch:type="MSShapeGroup"></path>
            <path d="M28,216.6 C34.9,218.7 41.8,220.8 48.8,222.9 C48.2,225.7 47.7,228.5 47.2,231.2 C48.1,231.4 49.1,231.5 50,231.7 C55.1,233.5 56.1,240 53,244 C50.1,245.3 49.4,248.5 47.9,251 C46.2,253.8 43.5,255.8 40.6,257.1 C35.8,258.5 30.2,258.1 26.4,254.6 C21.9,251.3 19.6,245.4 20.7,239.9 C21.2,235.8 25,233.2 25.5,229.1 C26.1,224.9 26.8,220.7 28,216.6" id="Fill-47" fill="#FFE1C4" sketch:type="MSShapeGroup"></path>
            <path d="M57.1,219.5 C60.1,220.8 61.5,223.8 62.3,226.8 C64,226.3 65.8,225.7 67.6,225.4 C69.6,228.3 67.6,231.6 66.5,234.5 C68.1,235 69.6,235.6 71.1,236.1 C69.5,237.5 68,239.3 65.9,239.9 C64,240.1 62,239.9 60.1,239.8 C58.5,242.4 56.6,244.7 54.3,246.7 C54,246 53.3,244.7 53,244 C56.1,240 55.1,233.5 50,231.7 C51.8,230.5 53.7,229.3 55.5,228.1 C56,225.2 56.5,222.4 57.1,219.5" id="Fill-48" fill="#339900" sketch:type="MSShapeGroup"></path>
            <path d="M143.3,221.4 C145.3,219.9 145,225 143.1,224.5 C142.5,223.5 142.6,222.5 143.3,221.4" id="Fill-49" fill="#66CC00" sketch:type="MSShapeGroup"></path>
            <path d="M63.2,229 C64.8,228.1 65,230.7 63.6,231 C62,231.9 61.7,229.3 63.2,229" id="Fill-50" fill="#66CC00" sketch:type="MSShapeGroup"></path>
            <path d="M74.7,233.4 C74.9,232 74.3,230.2 75.9,229.5 C77.5,230 79.4,231.1 77.7,232.8 C76.9,233 75.4,233.2 74.7,233.4" id="Fill-51" fill="#000000" sketch:type="MSShapeGroup"></path>
            <path d="M152.6,242.8 C153.9,240.6 155.3,238.6 156.7,236.6 C157.6,238.6 158.4,240.6 159.3,242.6 C159.8,242.5 160.8,242.2 161.2,242.1 C162.1,243 163.1,243.9 163.9,244.9 C163.7,245.6 163.1,247.2 162.9,248 C163.2,250.5 164.5,253.5 162.8,255.9 C160.7,257.8 158.3,254.9 156.2,254.1 C155.2,255.7 154.2,257.5 152.9,259 C149,259.3 150.4,253.9 150.5,251.5 C147.7,250 144.9,248.1 144.3,244.8 C147,243.9 149.8,243.3 152.6,242.8" id="Fill-52" fill="#339900" sketch:type="MSShapeGroup"></path>
            <path d="M147.8,246.3 C150.1,246 152.2,246.8 153.2,249 C151.1,248.6 149.3,247.6 147.8,246.3" id="Fill-53" fill="#66CC00" sketch:type="MSShapeGroup"></path>
            <path d="M75,248.1 C76,248.3 78.5,248.3 78,250 C78.1,252 75.5,251.7 74.3,251.7 C74.4,250.5 74.6,249.3 75,248.1" id="Fill-54" fill="#000000" sketch:type="MSShapeGroup"></path>
            <path d="M154.2,251.2 C155.8,251.5 154.5,254.9 153.1,254.5 C152.3,253.4 153,251.7 154.2,251.2" id="Fill-55" fill="#66CC00" sketch:type="MSShapeGroup"></path>
            <path d="M158.5,251.1 C159.9,250.1 161.7,252.5 160.7,253.7 C159.3,254.6 157.6,252.3 158.5,251.1" id="Fill-56" fill="#66CC00" sketch:type="MSShapeGroup"></path>
            <path d="M63.2,252.4 C64.8,253 66.7,253 68.1,254 C69.8,256.2 70.1,259.1 71,261.7 C72.9,259.6 74.9,257.7 77,255.7 C77.4,258.4 77.7,261 78,263.6 C70.3,262.8 62.7,261.7 55.1,260.4 C57.3,258.6 59.8,257.4 62.5,256.5 C62.7,255.1 62.9,253.8 63.2,252.4" id="Fill-57" fill="#339900" sketch:type="MSShapeGroup"></path>
            <path d="M131.5,253.2 C132.6,254.2 133.8,255 134.5,256.2 C134.8,258.5 134.6,260.8 134.6,263.1 C134,263.3 133,263.7 132.5,263.9 L131.5,264.1 L131.5,253.2" id="Fill-58" fill="#339900" sketch:type="MSShapeGroup"></path>
            <path d="M43.5,257.9 C47.3,258.8 51.2,259.7 55.1,260.4 C62.7,261.7 70.3,262.8 78,263.6 C79.5,263.8 81,264 82.5,264.1 C98.8,265.1 115.2,265.6 131.5,264.1 L132.5,263.9 C145.6,262.7 158.8,261 171.6,257.6 C171.8,264.7 171.8,271.8 171.6,279 C150.8,273 128.3,272.8 107.4,278.6 C103,279.6 98.8,277.1 94.4,276.4 C77.7,273.1 60.2,273.3 43.6,277.4 C43.4,270.9 43.5,264.4 43.5,257.9" id="Fill-59" fill="#7C4E32" sketch:type="MSShapeGroup"></path>
            <path d="M43.6,277.4 C60.2,273.3 77.7,273.1 94.4,276.4 C98.8,277.1 103,279.6 107.4,278.6 C128.3,272.8 150.8,273 171.6,279 C174.6,279.9 177.6,280.8 180.6,281.7 C130.2,281.8 79.8,281.9 29.4,281.6 C33.9,279.7 38.8,278.7 43.6,277.4" id="Fill-60" fill="#000000" sketch:type="MSShapeGroup"></path>
        </g>
    </g>
</svg>